<?xml version="1.0" encoding="UTF-8" standalone="no"?>
<!DOCTYPE svg PUBLIC "-//W3C//DTD SVG 1.1//EN" "http://www.w3.org/Graphics/SVG/1.1/DTD/svg11.dtd">
<svg xmlns="http://www.w3.org/2000/svg" xmlns:xlink="http://www.w3.org/1999/xlink" version="1.1" width="595.28pt" height="841.89pt" viewBox="0 0 595.28 841.89">
<g enable-background="new">
<g>
<g id="Layer-1" data-name="Layer 7">
</g>
<g id="Layer-1" data-name="nade body background">
<clipPath id="cp0">
<path transform="matrix(1,0,0,-1,0,841.89)" d="M 0 841.89 L 595.28 841.89 L 595.28 0 L 0 0 Z "/>
</clipPath>
<g clip-path="url(#cp0)">
<path transform="matrix(1,0,0,-1,171.0264,664.76406)" d="M 0 0 C 8.393 -8.666 23.244 -12.666 29.7 -22.666 C 36.803 -34 32.283 -49.334 39.385 -61.334 C 52.299 -82.666 84.582 -100.666 107.18 -105.334 C 123.322 -108.666 139.116 -110.068 156.251 -110.002 C 173.386 -110.068 189.181 -108.666 205.321 -105.334 C 227.92 -100.666 260.202 -82.666 273.116 -61.334 C 280.219 -49.334 275.698 -34 282.801 -22.666 C 289.257 -12.666 304.108 -8.666 312.501 0 L 312.501 -.334 C 323.479 11.332 329.935 29.332 334.132 44.998 C 338.65 60.998 322.51 69.998 325.738 84.332 C 327.028 91.332 335.424 96.998 338.975 103.332 C 342.524 109.998 343.816 116.666 344.141 124.332 C 345.754 148.998 342.364 189.914 313.47 197.924 C 297.247 201.914 308.629 214.59 312.503 225.258 C 317.667 240.59 301.526 265.924 292.81 278.591 C 279.251 298.591 267.952 308.257 245.677 316.591 C 245.677 323.924 245.029 332.665 244.385 339.665 C 243.416 352.999 239.542 361.665 228.565 369.665 C 218.235 376.999 208.913 383.83 211.093 400.205 L 101.41 400.205 C 103.588 383.83 94.267 376.999 83.936 369.665 C 72.96 361.665 69.086 352.999 68.117 339.665 C 67.472 332.665 66.826 323.924 66.826 316.591 C 44.55 308.257 33.251 298.591 19.692 278.591 C 10.976 265.924 -5.166 240.59 0 225.258 C 3.873 214.59 15.253 201.914 -.969 197.924 C -29.862 189.914 -33.252 148.998 -31.638 124.332 C -31.315 116.666 -30.024 109.998 -26.473 103.332 C -22.922 96.998 -14.528 91.332 -13.237 84.332 C -10.008 69.998 -26.15 60.998 -21.63 44.998 C -17.433 29.332 -10.977 11.332 0 -.334 " fill="#161811"/>
</g>
<g id="Layer-1" data-name="nade body foreground">
</g>
<clipPath id="cp1">
<path transform="matrix(1,0,0,-1,0,841.89)" d="M 0 841.89 L 595.28 841.89 L 595.28 0 L 0 0 Z "/>
</clipPath>
<g clip-path="url(#cp1)">
<path transform="matrix(1,0,0,-1,198.0464,448.46034)" d="M 0 0 C 6.144 -3.145 15.052 -6.625 27.362 -7.854 C 48.576 -9.971 55.551 -13.832 58.987 -3.75 C 61.379 3.27 62.31 8.729 69.641 33.5 C 72.879 44.446 85.992 76.752 77.386 82.607 C 69.398 88.041 62.912 86.761 53.55 86.217 C 35.635 85.176 14.931 69.375 8.272 61.625 C 3.509 56.081 -2.686 46.347 -5.488 37.761 C -9.509 25.441 -14.185 7.26 0 0 " fill="#366937"/>
<path transform="matrix(1,0,0,-1,326.915,466.89393)" d="M 0 0 C 11.969 .188 39.508 1.608 43.807 6.037 C 50.217 12.642 45.976 27.793 42.516 40.143 C 38.818 53.34 34.912 83.934 25.971 93.309 C 20.404 99.144 11.848 100.874 0 100.969 C -11.848 100.874 -20.405 99.144 -25.97 93.309 C -34.912 83.934 -38.818 53.339 -42.515 40.142 C -45.976 27.793 -50.217 12.642 -43.807 6.037 C -39.508 1.608 -11.969 .188 0 0 " fill="#366937"/>
<path transform="matrix(1,0,0,-1,186.4194,580.2103)" d="M 0 0 C 16.16 -6.826 45.25 -16.021 52.299 -5.711 C 56.346 .208 53.187 11.875 57.787 45.611 C 60.362 64.498 65.858 85.896 58.433 92.563 C 52.571 97.826 37.235 100.566 20.944 101.093 C 5.417 101.595 -1.089 102.826 -10.29 97 C -24.217 88.182 -30.387 77.75 -31.113 58.5 C -31.82 39.771 -29.108 30.231 -25.534 23 C -21.065 13.958 -15.98 6.75 0 0 " fill="#366937"/>
<path transform="matrix(1,0,0,-1,264.3838,541.4193)" d="M 0 0 C -1.147 -22.5 -1.614 -46 3.874 -51.666 C 10.939 -58.961 41.204 -60.256 61.306 -60.3 C 61.709 -60.301 62.121 -60.301 62.531 -60.301 C 62.941 -60.301 63.354 -60.301 63.757 -60.3 C 83.859 -60.256 114.123 -58.961 121.188 -51.666 C 126.677 -46 126.21 -22.5 125.063 0 C 123.999 20.862 118.16 47.194 110.816 51.76 C 103.861 56.083 89.277 51.625 62.531 51.402 C 35.784 51.625 21.201 56.083 14.247 51.76 C 6.903 47.194 1.063 20.862 0 0 " fill="#366937"/>
<path transform="matrix(1,0,0,-1,248.46,685.2103)" d="M 0 0 C 4.908 3.375 3.107 7.619 .13 30.875 C -2.009 47.584 -1.495 62.5 -14.625 69.5 C -21.582 73.209 -31.003 73.82 -51.829 79.553 C -62.846 82.585 -71.834 86.708 -78.25 84.708 C -81.174 83.797 -86.759 77.384 -85.125 65.136 C -77.667 33.208 -54.25 17.875 -35.891 8.904 C -17.741 .036 -5.151 -3.542 0 0 " fill="#366937"/>
<path transform="matrix(1,0,0,-1,258.8955,715.9193)" d="M 0 0 C -19.936 15.625 -34.352 17.042 -38.269 14.792 C -42.542 12.337 -44.873 -2.041 -36.002 -10.485 C -20.695 -25.056 6.921 -43.839 23.164 -43.839 C 28.578 -43.839 18.563 -29.416 14.447 -20.166 C 10.331 -10.916 4.944 -3.875 0 0 " fill="#366937"/>
<path transform="matrix(1,0,0,-1,396.7969,452.21034)" d="M 0 0 C 3.437 -10.082 10.411 -6.221 31.624 -4.104 C 43.935 -2.875 52.843 .605 58.987 3.75 C 73.171 11.01 68.496 29.191 64.476 41.511 C 61.673 50.097 55.478 59.831 50.714 65.375 C 44.056 73.125 23.352 88.926 5.437 89.967 C -3.925 90.511 -10.411 91.791 -18.399 86.357 C -27.005 80.502 -13.893 48.196 -10.653 37.25 C -3.323 12.479 -2.392 7.02 0 0 " fill="#366937"/>
<path transform="matrix(1,0,0,-1,498.5234,521.7103)" d="M 0 0 C -.726 19.25 -6.896 29.682 -20.823 38.5 C -30.023 44.326 -36.53 43.095 -52.057 42.593 C -68.348 42.066 -83.684 39.326 -89.546 34.063 C -96.971 27.396 -91.476 5.998 -88.899 -12.889 C -84.3 -46.625 -87.459 -58.292 -83.412 -64.211 C -76.362 -74.521 -47.272 -65.326 -31.112 -58.5 C -15.133 -51.75 -10.048 -44.542 -5.579 -35.5 C -2.005 -28.269 .707 -18.729 0 0 " fill="#366937"/>
<path transform="matrix(1,0,0,-1,483.6201,600.5023)" d="M 0 0 C -6.416 2 -15.404 -2.123 -26.421 -5.155 C -47.246 -10.888 -56.668 -11.499 -63.625 -15.208 C -76.756 -22.208 -76.241 -37.124 -78.381 -53.833 C -81.357 -77.089 -83.158 -81.333 -78.25 -84.708 C -73.1 -88.25 -60.509 -84.672 -42.359 -75.804 C -24 -66.833 -.584 -51.5 6.875 -19.572 C 8.51 -7.324 2.924 -.911 0 0 " fill="#366937"/>
<path transform="matrix(1,0,0,-1,433.2041,701.1273)" d="M 0 0 C -3.918 2.25 -18.334 .833 -38.27 -14.792 C -43.213 -18.667 -48.6 -25.708 -52.717 -34.958 C -56.832 -44.208 -66.848 -58.631 -61.434 -58.631 C -45.191 -58.631 -17.574 -39.848 -2.268 -25.277 C 6.604 -16.833 4.272 -2.455 0 0 " fill="#366937"/>
<path transform="matrix(1,0,0,-1,334.9678,622.0853)" d="M 0 0 C -2.67 -.089 -5.363 -.128 -8.053 -.132 C -10.742 -.128 -13.437 -.089 -16.106 0 C -38.624 .75 -61.674 5.337 -65.89 -2.522 C -71.411 -12.814 -68.701 -30.789 -65.742 -43.667 C -60.794 -65.192 -59.608 -69.271 -49.115 -74.001 C -42.789 -76.853 -31.353 -77.014 -8.053 -77.489 C 15.246 -77.014 26.684 -76.853 33.01 -74.001 C 43.502 -69.271 44.689 -65.192 49.637 -43.667 C 52.596 -30.789 55.305 -12.814 49.785 -2.522 C 45.568 5.337 22.518 .75 0 0 " fill="#366937"/>
<path transform="matrix(1,0,0,-1,333.2139,716.392)" d="M 0 0 C -.555 .005 -5.758 -.021 -6.299 -.006 C -6.841 -.021 -12.043 .005 -12.598 0 C -47.816 -.318 -58.54 11.182 -39.049 -31.693 C -36.288 -37.766 -31.229 -45.154 -25.005 -48.318 C -20.087 -50.818 -11.919 -51.506 -6.786 -51.506 C -6.63 -51.506 -6.461 -51.503 -6.299 -51.502 C -6.137 -51.503 -5.969 -51.506 -5.812 -51.506 C -.68 -51.506 7.489 -50.818 12.408 -48.318 C 18.633 -45.154 23.69 -37.766 26.451 -31.693 C 45.942 11.182 35.219 -.318 0 0 " fill="#366937"/>
</g>
<g id="Layer-1" data-name="nade shadow">
</g>
<clipPath id="cp2">
<path transform="matrix(1,0,0,-1,0,841.89)" d="M 0 841.89 L 595.28 841.89 L 595.28 0 L 0 0 Z "/>
</clipPath>
<g clip-path="url(#cp2)">
<filter id="blend_4"><feBlend mode="darken" in2="BackgroundImage" in="SourceGraphic"/></filter>
<g opacity=".399994" filter="url(#blend_4)">
<clipPath id="cp3">
<path transform="matrix(1,0,0,-1,0,841.89)" d="M 240.112 73.9922 L 498.636 73.9922 L 498.636 480.177 L 240.112 480.177 Z "/>
</clipPath>
<g clip-path="url(#cp3)">
<path transform="matrix(1,0,0,-1,444.9785,416.60093)" d="M 0 0 C 0 .001 .001 .003 .001 .004 C 1.205 4.227 2.354 8.339 3.451 12.334 C 3.483 12.453 3.517 12.572 3.55 12.691 C 4.063 14.565 4.564 16.41 5.056 18.229 C 5.128 18.499 5.2 18.766 5.271 19.034 C 5.755 20.829 6.229 22.604 6.688 24.342 C 5.262 26.391 3.843 28.24 2.532 29.766 C -4.126 37.516 -24.83 53.316 -42.745 54.357 C -52.106 54.901 -58.593 56.182 -66.581 50.748 C -74.715 45.214 -63.45 16.056 -59.455 3.634 C -39.667 1.094 -19.489 -.369 0 0 " fill="#030404"/>
<path transform="matrix(1,0,0,-1,462.8145,415.7113)" stroke-width="0" stroke-linecap="round" stroke-linejoin="round" fill="none" stroke="#366937" d="M 0 0 C .001 -.002 .002 -.004 .002 -.005 "/>
<path transform="matrix(1,0,0,-1,385.5723,593.0853)" d="M 0 0 C 3.236 3.341 4.401 12.887 4.577 24.769 C .069 14.906 -4.649 5.108 -9.586 -4.54 C -5.224 -3.373 -1.83 -1.889 0 0 " fill="#030404"/>
<path transform="matrix(1,0,0,-1,271.1016,731.49746)" d="M 0 0 C -7.675 -5.382 -15.598 -10.089 -23.768 -14.044 C -11.431 -22.07 1.636 -28.261 10.958 -28.261 C 16.372 -28.261 6.357 -13.838 2.241 -4.588 C 1.529 -2.989 .778 -1.462 0 0 " fill="#030404"/>
<path transform="matrix(1,0,0,-1,498.5234,521.7103)" d="M 0 0 C -.726 19.25 -6.896 29.682 -20.823 38.5 C -30.023 44.326 -36.53 43.095 -52.057 42.593 C -59.884 42.34 -67.478 41.57 -73.919 40.261 C -78.892 25.852 -84.331 11.014 -90.253 -3.963 C -89.771 -6.956 -89.3 -9.952 -88.899 -12.889 C -84.3 -46.625 -87.459 -58.292 -83.412 -64.211 C -76.362 -74.521 -47.272 -65.326 -31.112 -58.5 C -15.133 -51.75 -10.048 -44.542 -5.579 -35.5 C -2.005 -28.269 .707 -18.729 0 0 " fill="#030404"/>
<path transform="matrix(1,0,0,-1,483.6201,600.5023)" d="M 0 0 C -6.416 2 -15.404 -2.123 -26.421 -5.155 C -47.246 -10.888 -56.668 -11.499 -63.625 -15.208 C -76.756 -22.208 -76.241 -37.124 -78.381 -53.833 C -81.357 -77.089 -83.158 -81.333 -78.25 -84.708 C -73.1 -88.25 -60.509 -84.672 -42.359 -75.804 C -24 -66.833 -.584 -51.5 6.875 -19.572 C 8.51 -7.324 2.924 -.911 0 0 " fill="#030404"/>
<path transform="matrix(1,0,0,-1,433.2041,701.1273)" d="M 0 0 C -3.918 2.25 -18.334 .833 -38.27 -14.792 C -43.213 -18.667 -48.6 -25.708 -52.717 -34.958 C -56.832 -44.208 -66.848 -58.631 -61.434 -58.631 C -45.191 -58.631 -17.574 -39.848 -2.268 -25.277 C 6.604 -16.833 4.272 -2.455 0 0 " fill="#030404"/>
<path transform="matrix(1,0,0,-1,307.7822,699.1088)" d="M 0 0 C 5.288 -.19 11.585 -.312 19.133 -.466 C 42.432 .01 53.869 .171 60.195 3.022 C 70.688 7.752 71.875 11.831 76.822 33.356 C 79.781 46.234 82.49 64.209 76.971 74.501 C 74.646 78.834 66.591 79.382 56.062 78.877 C 39.539 49.59 20.884 22.425 0 0 " fill="#030404"/>
<path transform="matrix(1,0,0,-1,333.2139,716.392)" d="M 0 0 C -.555 .005 -5.758 -.021 -6.299 -.006 C -6.841 -.021 -12.043 .005 -12.598 0 C -25.991 -.121 -35.837 1.465 -41.831 1.121 C -46.459 .856 -48.79 -.561 -48.674 -4.805 C -48.545 -9.518 -45.404 -17.714 -39.049 -31.693 C -36.288 -37.766 -31.229 -45.154 -25.005 -48.318 C -20.087 -50.818 -11.919 -51.506 -6.786 -51.506 C -6.63 -51.506 -6.461 -51.503 -6.299 -51.502 C -6.137 -51.503 -5.969 -51.506 -5.812 -51.506 C -.68 -51.506 7.489 -50.818 12.408 -48.318 C 18.633 -45.154 23.69 -37.766 26.451 -31.693 C 45.942 11.182 35.219 -.318 0 0 " fill="#030404"/>
<path transform="matrix(1,0,0,-1,450.0342,398.37193)" d="M 0 0 C -.49 -1.819 -.992 -3.665 -1.506 -5.538 C -1.539 -5.657 -1.572 -5.776 -1.604 -5.895 C -2.701 -9.889 -3.851 -14.002 -5.055 -18.225 C -5.055 -18.226 -5.056 -18.228 -5.056 -18.229 C -8.541 -30.457 -12.475 -43.584 -16.873 -57.333 C -6.98 -55.789 .425 -52.814 5.75 -50.088 C 18.108 -43.762 16.149 -29.146 12.78 -17.339 C 12.283 -15.596 11.756 -13.913 11.238 -12.328 C 9.207 -6.104 5.393 .716 1.633 6.113 C 1.174 4.375 .698 2.599 .216 .805 C .145 .537 .072 .27 0 0 " fill="#030404"/>
<path transform="matrix(1,0,0,-1,276.5444,366.93443)" d="M 0 0 C -22.354 -7.829 -36.433 -13.204 -36.433 -13.204 C -30.513 -14.443 -17.901 -18.2 -.885 -22.858 C 1.685 -13.223 3.076 -3.944 0 0 " fill="#030404"/>
<path transform="matrix(1,0,0,-1,352.8857,373.58534)" d="M 0 0 C -5.566 5.835 -14.123 7.565 -25.971 7.66 C -37.818 7.565 -46.376 5.835 -51.94 0 C -55.749 -3.993 -58.642 -11.837 -60.996 -20.545 C -39.843 -26.046 -14.27 -32.049 12.785 -36.476 C 9.842 -22.606 6.089 -6.384 0 0 " fill="#030404"/>
</g>
</g>
</g>
<g id="Layer-1" data-name="nade highlight">
</g>
<clipPath id="cp4">
<path transform="matrix(1,0,0,-1,0,841.89)" d="M 0 841.89 L 595.28 841.89 L 595.28 0 L 0 0 Z "/>
</clipPath>
<g clip-path="url(#cp4)">
<path transform="matrix(1,0,0,-1,204.7515,487.64784)" d="M 0 0 C 0 0 -53.5 17.812 -43.125 -50.063 C -36.982 -29.938 -40.589 -13.231 0 0 " fill="#ffffff"/>
<path transform="matrix(1,0,0,-1,195.0151,609.8353)" d="M 0 0 C 0 0 -37.146 22.049 -26.43 -17.625 C -26.43 -17.625 -24.047 3.926 0 0 " fill="#ffffff"/>
<path transform="matrix(1,0,0,-1,232.9219,704.263)" d="M 0 0 C 0 0 -18.587 8.178 -12.212 -11.947 C -12.212 -11.947 -7.91 -2.5 0 0 " fill="#ffffff"/>
<path transform="matrix(1,0,0,-1,196.0186,420.94523)" d="M 0 0 C 0 0 27 32.333 57.833 45 C 15.833 51.667 -1.5 12.833 0 0 " fill="#ffffff"/>
<path transform="matrix(1,0,0,-1,244.667,406.50044)" d="M 0 0 C -30.917 2.25 -36.583 12.297 -40.5 13.463 C -44.417 14.63 -27.667 27.226 -27.667 27.226 L 9.083 22.791 Z " fill="#366937"/>
</g>
<g id="Layer-1" data-name="crown body background backdrop">
</g>
<clipPath id="cp5">
<path transform="matrix(1,0,0,-1,0,841.89)" d="M 0 841.89 L 595.28 841.89 L 595.28 0 L 0 0 Z "/>
</clipPath>
<g clip-path="url(#cp5)">
<path transform="matrix(1,0,0,-1,210.4487,185.1341)" d="M 0 0 C 6.271 4.593 9.736 12.497 8.231 20.653 C 6.137 32.011 -4.768 39.52 -16.124 37.426 C -27.481 35.33 -34.99 24.426 -32.896 13.069 C -30.966 2.607 -21.557 -4.569 -11.208 -4.001 C -10.372 -9.972 -4.144 -57.988 -13.389 -100.415 C -16.183 -113.236 71.95 -75.818 71.95 -75.818 C 39.507 -61.148 3.186 -4.997 0 0 " fill="#161811"/>
<path transform="matrix(1,0,0,-1,351.4893,163.84363)" d="M 0 0 C -7.338 2.572 -12.947 9.128 -13.879 17.37 C -15.176 28.844 -6.926 39.198 4.551 40.496 C 16.023 41.792 26.381 33.542 27.68 22.066 C 28.873 11.495 21.955 1.893 11.885 -.572 C 12.822 -6.527 20.82 -54.28 41.996 -92.187 C 48.4 -103.645 -46.807 -93.459 -46.807 -93.459 C -20.025 -69.991 -1.598 -5.708 0 0 " fill="#161811"/>
</g>
<g id="Layer-1" data-name="crown body background">
</g>
<clipPath id="cp6">
<path transform="matrix(1,0,0,-1,0,841.89)" d="M 0 841.89 L 595.28 841.89 L 595.28 0 L 0 0 Z "/>
</clipPath>
<g clip-path="url(#cp6)">
<path transform="matrix(1,0,0,-1,435.8818,74.3031)" d="M 0 0 C -19.395 -2.975 -32.703 -21.107 -29.729 -40.5 C -28.182 -50.585 -22.531 -59.018 -14.738 -64.379 C -72.115 -196.742 -96.479 -191.539 -149.929 -51.619 C -136.986 -44.723 -129.174 -30.198 -131.521 -14.882 C -134.494 4.496 -152.6 17.797 -171.976 14.853 L -171.976 14.854 C -171.983 14.852 -171.991 14.851 -171.999 14.85 C -172.007 14.848 -172.014 14.848 -172.021 14.847 L -172.021 14.846 C -191.403 11.94 -204.775 -6.114 -201.896 -25.505 C -199.618 -40.833 -187.864 -52.403 -173.464 -55.172 C -183.229 -204.634 -204.972 -216.797 -298.863 -107.269 C -293.001 -99.848 -290.09 -90.123 -291.589 -80.031 C -294.473 -60.625 -312.541 -47.228 -331.948 -50.111 C -351.354 -52.994 -364.75 -71.063 -361.866 -90.469 C -358.984 -109.876 -340.916 -123.271 -321.509 -120.39 C -320.562 -120.249 -319.634 -120.061 -318.718 -119.85 C -285.809 -171.925 -257.256 -254.447 -257.256 -254.447 C -257.256 -254.447 -257.257 -254.448 -257.256 -254.449 C -262.981 -262.157 -265.753 -272.056 -264.207 -282.3 C -262.087 -296.342 -252.41 -307.37 -239.932 -311.879 C -239.929 -311.88 -239.926 -311.881 -239.923 -311.884 C -230.917 -315.817 -193.351 -318.719 -123.957 -308.41 C -123.713 -308.375 -123.48 -308.338 -123.24 -308.302 C -122.98 -308.262 -122.732 -308.227 -122.475 -308.187 C -53.133 -297.553 -18.094 -283.689 -10.65 -277.273 C -10.648 -277.27 -10.648 -277.268 -10.646 -277.266 C -.053 -269.274 5.937 -255.881 3.818 -241.84 C 2.271 -231.595 -3.299 -222.956 -11.045 -217.281 L -11.045 -217.279 C -11.045 -217.279 -8.125 -130.007 7.945 -70.538 C 8.883 -70.468 9.826 -70.373 10.771 -70.229 C 30.164 -67.253 43.473 -49.122 40.498 -29.729 C 37.523 -10.335 19.391 2.975 0 0 " fill="#171812"/>
</g>
<g id="Layer-1" data-name="crown body foreground">
</g>
<clipPath id="cp7">
<path transform="matrix(1,0,0,-1,0,841.89)" d="M 0 841.89 L 595.28 841.89 L 595.28 0 L 0 0 Z "/>
</clipPath>
<g clip-path="url(#cp7)">
<path transform="matrix(1,0,0,-1,112.7139,183.5238)" d="M 0 0 C -13.228 -1.965 -25.588 7.197 -27.553 20.424 C -29.517 33.652 -20.354 46.011 -7.127 47.976 C 6.101 49.941 18.46 40.778 20.425 27.551 C 22.39 14.324 13.227 1.964 0 0 " fill="#fbb117"/>
<path transform="matrix(1,0,0,-1,131.1118,156.2738)" d="M 0 0 C 1.801 -12.128 -6.57 -23.421 -18.7 -25.224 C -30.829 -27.025 -42.121 -18.654 -43.923 -6.525 C -45.723 5.604 -37.353 16.897 -25.224 18.7 C -13.095 20.501 -1.801 12.129 0 0 " fill="#fbb117"/>
<path transform="matrix(1,0,0,-1,272.7441,118.568729)" d="M 0 0 C -13.227 -1.964 -25.587 7.198 -27.552 20.425 C -29.517 33.651 -20.354 46.012 -7.126 47.977 C 6.101 49.942 18.46 40.779 20.427 27.552 C 22.39 14.325 13.227 1.965 0 0 " fill="#fbb117"/>
<path transform="matrix(1,0,0,-1,291.1416,91.31824)" d="M 0 0 C 1.803 -12.128 -6.57 -23.421 -18.7 -25.224 C -30.829 -27.025 -42.121 -18.653 -43.923 -6.525 C -45.724 5.604 -37.352 16.897 -25.224 18.699 C -13.094 20.501 -1.8 12.13 0 0 " fill="#fbb117"/>
<path transform="matrix(1,0,0,-1,444.7432,134.20545)" d="M 0 0 C -13.225 -1.964 -25.586 7.199 -27.551 20.426 C -29.514 33.652 -20.352 46.013 -7.123 47.978 C 6.102 49.942 18.463 40.78 20.428 27.553 C 22.391 14.325 13.229 1.966 0 0 " fill="#fbb117"/>
<path transform="matrix(1,0,0,-1,463.1455,106.95404)" d="M 0 0 C 1.801 -12.128 -6.572 -23.421 -18.703 -25.224 C -30.83 -27.025 -42.123 -18.653 -43.924 -6.524 C -45.727 5.605 -37.354 16.897 -25.229 18.699 C -13.096 20.501 -1.803 12.129 0 0 " fill="#fbb117"/>
<path transform="matrix(1,0,0,-1,426.6768,159.08429)" d="M 0 0 C -27.486 -60.821 -46.439 -85.151 -67.973 -88.406 C -67.977 -88.407 -67.977 -88.406 -67.98 -88.407 C -99.563 -93.175 -121.873 -52.818 -151.313 23.549 C -156.9 -58.105 -166.299 -103.243 -197.888 -108.018 C -197.89 -108.018 -197.892 -108.019 -197.894 -108.019 C -219.423 -111.269 -244.721 -93.611 -288.936 -43.614 C -259.795 -95.395 -236.536 -162.204 -235.462 -165.309 L -233.163 -171.96 L -237.357 -177.609 C -241.204 -182.79 -242.793 -189.155 -241.83 -195.531 C -240.512 -204.267 -234.522 -211.562 -226.199 -214.569 L -225.973 -214.652 L -225.212 -214.96 C -220.14 -216.824 -188.614 -221.135 -116.715 -210.453 L -116.637 -210.441 L -115.299 -210.239 C -46.502 -199.688 -17.127 -186.932 -10.996 -183 L -9.473 -181.852 C -2.408 -176.523 1.158 -167.785 -.16 -159.048 C -1.123 -152.673 -4.521 -147.059 -9.729 -143.244 L -15.4 -139.085 L -15.166 -132.054 C -15.057 -128.77 -12.557 -58.076 0 0 " fill="#f9b018"/>
</g>
<g id="Layer-1" data-name="crown shadow">
</g>
<clipPath id="cp8">
<path transform="matrix(1,0,0,-1,0,841.89)" d="M 0 841.89 L 595.28 841.89 L 595.28 0 L 0 0 Z "/>
</clipPath>
<g clip-path="url(#cp8)">
<g opacity=".399994" filter="url(#blend_4)">
<clipPath id="cp9">
<path transform="matrix(1,0,0,-1,0,841.89)" d="M 263.501 466.89 L 426.787 466.89 L 426.787 591.413 L 263.501 591.413 Z "/>
</clipPath>
<g clip-path="url(#cp9)">
<path transform="matrix(1,0,0,-1,414.0205,250.47742)" d="M 0 0 C -22.27 -54.543 -54.977 -94.585 -150.52 -124.523 C -137.397 -123.453 -121.982 -121.724 -104.059 -119.06 L -103.98 -119.048 L -102.643 -118.846 C -33.846 -108.295 -4.471 -95.539 1.66 -91.606 L 3.184 -90.459 C 10.248 -85.13 13.814 -76.392 12.496 -67.655 C 11.533 -61.28 8.135 -55.666 2.928 -51.851 L -2.744 -47.692 L -2.51 -40.661 C -2.455 -39.125 -1.885 -22.84 0 0 " fill="#030404"/>
</g>
</g>
</g>
<g id="Layer-1" data-name="crown highlights">
</g>
<clipPath id="cp10">
<path transform="matrix(1,0,0,-1,0,841.89)" d="M 0 841.89 L 595.28 841.89 L 595.28 0 L 0 0 Z "/>
</clipPath>
<g clip-path="url(#cp10)">
<path transform="matrix(1,0,0,-1,276.9053,149.68885)" d="M 0 0 C 8.464 -39.535 11.313 -120.392 -42.612 -118.926 C -12.687 -116.49 .827 -49.815 0 0 " fill="#ffffff"/>
<path transform="matrix(1,0,0,-1,418.8682,180.39984)" d="M 0 0 C -11.83 -42.572 -15.229 -65.026 -51.775 -67.894 C -32.395 -60.623 -14.191 -33.21 0 0 " fill="#ffffff"/>
<path transform="matrix(1,0,0,-1,112.9028,138.98084)" d="M 0 0 C -20.247 4.919 -32.478 -23.336 -18.331 -35.786 C -16.285 -25.172 -9.065 -6.483 0 0 " fill="#ffffff"/>
<path transform="matrix(1,0,0,-1,270.8359,73.71814)" d="M 0 0 C -22.532 1.391 -29.819 -25.341 -14.7 -36.591 C -12.717 -25.926 -12.68 -13.204 0 0 " fill="#ffffff"/>
<path transform="matrix(1,0,0,-1,438.5361,90.17029)" d="M 0 0 C -19.762 -.114 -23.803 -29.289 -9.309 -36.893 C -10.518 -26.885 -5.389 -6.785 0 0 " fill="#ffffff"/>
<path transform="matrix(1,0,0,-1,198.0522,331.2889)" d="M 0 0 C 23.732 -4.438 48.436 -6.754 120.886 1.801 C 120.886 1.801 59.483 -17.004 5.782 -12.762 C 5.782 -12.762 -4.517 -17.403 -3.08 -33.358 C -17.157 -13.482 0 0 0 0 " fill="#ffffff"/>
</g>
</g>
</g>
</g>
</svg>
